{"glyphs":{"0":{"ha":658,"x_min":56,"x_max":729,"o":"m 294 1 l 294 1 q 157 42 210 1 q 80 152 104 83 q 56 304 56 221 l 56 304 q 91 536 56 411 q 196 775 126 661 l 196 775 q 349 951 263 882 q 528 1021 435 1021 l 528 1021 q 642 976 597 1021 q 708 854 686 931 q 729 683 729 778 l 729 683 q 701 450 729 567 q 617 231 672 333 l 617 231 q 478 65 561 129 q 294 1 396 1 z m 336 235 l 336 235 q 431 269 389 235 q 504 357 474 303 q 551 472 535 411 q 568 588 568 533 l 568 588 q 545 689 568 647 q 472 731 522 731 l 472 731 q 394 692 432 731 q 328 595 357 654 q 281 470 299 536 q 264 350 264 404 l 264 350 q 281 267 264 299 q 336 235 297 235 z "},"1":{"ha":444,"x_min":101,"x_max":554,"o":"m 126 6 l 126 6 l 181 256 q 201 358 189 297 q 227 485 214 418 q 251 611 240 551 q 269 713 263 671 l 269 713 q 204 704 235 710 l 204 704 l 150 696 q 101 688 122 690 l 101 688 q 105 713 103 697 q 110 747 107 728 l 110 747 l 122 828 q 128 877 125 851 q 136 931 132 903 l 136 931 q 174 938 151 933 q 225 949 197 943 l 225 949 l 354 969 q 444 984 394 976 q 554 1001 494 992 l 554 1001 q 456 538 499 768 q 374 60 413 307 l 374 60 q 300 40 342 50 q 218 24 258 31 l 218 24 q 173 14 196 18 q 126 6 150 10 z "},"2":{"ha":649,"x_min":1,"x_max":747,"o":"m 236 29 l 1 13 l 25 188 q 67 277 29 229 q 161 374 106 325 q 272 465 217 424 l 272 465 q 383 551 331 510 q 469 629 436 593 q 503 690 503 665 l 503 690 q 487 755 503 732 q 447 778 471 778 l 447 778 q 382 743 401 778 q 363 665 363 708 l 363 665 l 363 651 q 364 646 363 647 l 364 646 q 326 643 346 644 q 286 639 306 642 l 286 639 q 249 636 268 638 q 210 632 231 635 l 210 632 q 167 627 188 629 q 125 622 146 625 l 125 622 q 123 645 124 633 q 122 667 122 657 l 122 667 q 153 813 122 749 q 237 922 185 878 q 353 990 289 967 q 481 1013 417 1013 l 481 1013 q 612 983 551 1013 q 710 891 672 953 q 747 735 747 829 l 747 735 q 711 599 747 665 q 611 471 675 533 l 611 471 q 460 347 547 407 q 269 233 372 288 l 269 233 q 419 239 332 233 q 621 254 506 244 l 621 254 l 599 53 q 436 42 533 47 q 236 29 339 36 l 236 29 z "},"3":{"ha":636,"x_min":14,"x_max":719,"o":"m 243 -17 l 243 -17 q 127 3 179 -17 q 44 65 75 24 q 14 171 14 107 l 14 171 q 26 242 14 203 l 26 242 l 269 256 q 283 215 269 228 q 318 203 297 203 l 318 203 q 371 218 343 203 q 419 259 399 233 q 439 314 439 285 l 439 314 q 407 375 439 347 q 301 403 375 403 l 301 403 q 248 401 275 403 q 194 396 221 399 l 194 396 q 146 389 168 392 q 106 385 124 386 l 106 385 l 131 590 q 217 647 172 617 q 297 704 261 676 l 297 704 q 340 735 319 719 q 379 767 360 751 l 379 767 l 156 763 l 172 1001 q 294 1007 236 1004 q 407 1013 353 1010 l 407 1013 q 583 1017 510 1013 q 719 1022 656 1022 l 719 1022 l 686 726 l 408 581 q 609 492 551 554 q 667 356 667 431 l 667 356 q 632 224 667 290 q 538 104 597 158 q 402 17 478 50 q 243 -17 326 -17 z "},"4":{"ha":638,"x_min":31,"x_max":699,"o":"m 558 42 l 303 -3 l 331 219 l 92 201 l 31 326 l 118 589 q 192 813 158 707 q 250 989 225 919 l 250 989 q 360 992 308 989 q 472 1004 413 996 l 472 1004 q 377 744 421 875 q 292 479 333 614 l 292 479 q 285 446 290 461 l 285 446 l 383 446 q 403 555 392 503 q 424 663 414 607 l 424 663 q 439 747 431 703 q 457 839 447 792 l 457 839 l 547 851 q 625 861 585 857 q 694 868 665 865 l 694 868 q 682 791 693 846 q 658 657 671 736 l 658 657 q 640 551 650 608 q 619 446 629 493 l 619 446 l 699 446 l 642 224 l 571 224 l 558 42 z "},"5":{"ha":625,"x_min":61,"x_max":717,"o":"m 286 -7 l 286 -7 q 121 61 181 -7 q 61 240 61 129 l 61 240 q 63 296 61 267 q 68 357 65 325 l 68 357 l 282 340 q 275 307 275 317 l 275 307 q 292 267 275 279 q 331 254 308 254 l 331 254 q 403 288 369 254 q 438 386 438 321 l 438 386 q 409 447 438 422 q 290 472 381 472 l 290 472 q 256 471 275 472 q 201 465 238 469 q 96 447 165 460 l 96 447 q 133 687 111 551 q 188 993 156 822 l 188 993 l 717 1013 l 689 786 q 611 783 650 785 q 532 781 572 782 l 532 781 q 451 778 492 779 q 368 774 410 776 l 368 774 l 354 657 q 506 640 443 657 q 607 594 568 624 l 607 594 q 663 526 646 565 q 681 438 681 486 l 681 438 q 647 291 681 369 q 551 143 613 213 l 551 143 q 419 33 489 72 q 286 -7 350 -7 z "},"6":{"ha":664,"x_min":72,"x_max":739,"o":"m 363 7 l 363 7 q 218 46 285 7 q 112 161 151 85 q 72 351 72 238 l 72 351 q 118 648 72 521 q 232 860 164 775 l 232 860 q 381 984 301 943 q 532 1025 461 1025 l 532 1025 q 685 956 632 1025 q 739 785 739 888 l 739 785 l 549 694 q 497 793 549 793 l 497 793 q 446 756 474 793 q 392 659 418 718 q 350 532 367 600 l 350 532 q 409 546 381 542 q 464 550 438 550 l 464 550 q 592 516 540 550 q 672 427 644 482 q 699 311 699 372 l 699 311 q 661 167 699 236 q 549 52 624 97 q 363 7 475 7 z m 386 215 l 386 215 q 479 251 442 215 q 517 326 517 286 l 517 326 q 493 365 517 349 l 493 365 q 408 382 471 382 l 408 382 q 367 379 389 382 q 319 368 346 376 l 319 368 q 318 360 318 364 q 318 351 318 356 l 318 351 l 318 335 q 339 243 318 271 l 339 243 q 386 215 360 215 z "},"7":{"ha":471,"x_min":40,"x_max":642,"o":"m 289 35 l 40 13 l 317 772 l 111 742 l 154 986 l 642 1028 l 289 35 z "},"8":{"ha":719,"x_min":28,"x_max":817,"o":"m 315 -15 l 315 -15 q 167 8 232 -15 q 65 83 103 32 q 28 214 28 133 l 28 214 q 51 345 28 278 q 122 468 74 413 q 250 551 171 524 l 250 551 q 184 629 204 589 q 164 713 164 669 l 164 713 q 200 831 164 774 q 297 933 236 888 q 433 1006 358 979 q 582 1033 507 1033 l 582 1033 q 713 1003 661 1033 q 791 926 765 974 q 817 822 817 878 l 817 822 q 773 678 817 750 q 649 571 729 607 l 649 571 q 719 463 697 519 q 740 351 740 407 l 740 351 q 707 213 740 279 q 615 96 674 147 q 480 15 557 44 q 315 -15 403 -15 z m 457 613 l 457 613 q 524 634 492 613 q 577 685 556 656 q 599 740 599 715 l 599 740 q 567 792 599 776 q 501 807 535 807 l 501 807 q 412 770 442 807 q 382 692 382 733 l 382 692 q 402 637 382 661 q 457 613 422 613 z m 353 197 l 353 197 q 492 238 451 197 q 532 326 532 278 l 532 326 q 502 426 532 397 q 432 454 472 454 l 432 454 q 338 428 385 454 q 260 364 292 403 q 229 285 229 325 l 229 285 q 257 224 229 250 q 353 197 285 197 z "},"9":{"ha":679,"x_min":97,"x_max":756,"o":"m 203 10 l 203 10 l 224 240 q 388 303 318 240 q 483 474 457 365 l 483 474 q 416 444 451 454 q 346 435 381 435 l 346 435 q 226 468 283 435 q 133 563 169 501 q 97 708 97 625 l 97 708 q 146 885 97 813 q 270 994 194 957 q 426 1032 346 1032 l 426 1032 q 586 991 511 1032 q 708 867 661 950 q 756 654 756 783 l 756 654 q 708 394 756 513 q 583 190 661 276 l 583 190 q 407 58 506 106 q 203 10 308 10 z m 421 647 l 421 647 q 485 667 456 647 q 514 724 514 686 l 514 724 q 491 809 514 788 q 436 831 468 831 l 436 831 q 386 819 413 831 q 342 786 360 807 q 324 735 324 765 l 324 735 q 354 668 324 689 q 421 647 385 647 z "}," ":{"ha":271,"x_min":null,"x_max":null,"o":""},"!":{"ha":365,"x_min":-6,"x_max":540,"o":"m 119 321 l 119 321 q 163 492 142 407 q 204 661 183 576 l 204 661 q 245 831 224 746 q 289 1001 267 917 l 289 1001 q 433 1022 368 1014 q 540 1038 499 1031 l 540 1038 q 403 685 465 863 q 281 329 342 508 l 281 329 q 200 326 240 329 q 119 321 160 324 z m 117 -32 l 117 -32 q 48 -12 75 -32 q 8 38 21 8 q -6 99 -6 68 l -6 99 q 31 195 -6 154 q 133 236 68 236 l 133 236 q 254 198 214 236 q 294 111 294 160 l 294 111 q 249 12 294 56 q 117 -32 203 -32 z "},"\"":{"ha":585,"x_min":100,"x_max":792,"o":"m 608 639 l 396 625 q 427 706 411 665 q 457 786 443 747 l 457 786 q 510 933 483 856 q 556 1072 538 1010 l 556 1072 q 674 1081 624 1075 q 792 1094 724 1086 l 792 1094 q 735 947 767 1025 q 675 799 704 868 l 675 799 l 608 639 z m 296 638 l 100 611 l 149 790 q 169 869 163 842 q 181 913 176 896 q 191 947 186 929 q 203 996 196 965 q 225 1083 211 1026 l 225 1083 q 238 1082 232 1082 q 250 1082 244 1082 l 250 1082 l 271 1082 q 322 1083 297 1082 q 368 1085 346 1083 l 368 1085 q 417 1087 392 1086 q 468 1088 442 1088 l 468 1088 q 413 953 443 1031 q 357 806 382 876 l 357 806 q 326 723 342 765 q 296 638 311 681 l 296 638 z "},"#":{"ha":869,"x_min":61,"x_max":957,"o":"m 82 -7 l 82 -7 q 113 94 97 43 q 142 194 128 144 l 142 194 q 124 194 135 194 q 101 193 114 194 l 101 193 q 78 192 89 192 q 61 192 68 192 l 61 192 l 86 421 q 117 422 94 421 q 162 425 139 424 q 192 426 185 426 l 192 426 q 199 462 194 436 q 207 515 203 488 q 213 553 211 542 l 213 553 l 118 553 l 124 601 q 126 633 125 617 q 129 665 128 650 l 129 665 l 138 747 l 247 754 q 264 844 257 799 l 264 844 q 271 883 267 864 q 278 922 275 903 l 278 922 q 284 958 281 942 q 290 988 288 974 l 290 988 q 380 996 331 990 q 513 1006 429 1001 l 513 1006 q 506 978 510 994 q 497 942 501 961 l 497 942 l 481 860 q 460 760 471 813 l 460 760 l 611 768 q 622 817 617 793 q 633 864 628 842 l 633 864 l 654 944 q 663 981 660 964 q 669 1008 667 997 l 669 1008 q 776 1017 724 1011 q 883 1029 829 1022 l 883 1029 q 874 1001 879 1018 q 864 964 869 985 l 864 964 q 853 922 858 942 q 842 882 847 901 l 842 882 q 831 833 836 858 q 818 782 825 808 l 818 782 l 957 788 l 940 715 q 926 645 933 683 q 913 571 918 607 l 913 571 l 768 563 q 759 519 763 535 q 753 485 756 503 q 743 436 750 468 l 743 436 l 896 446 q 876 333 886 392 q 860 219 867 274 l 860 219 q 849 221 853 219 l 849 221 l 831 221 q 759 219 792 221 q 708 218 726 218 l 708 218 q 699 171 703 194 q 692 124 694 147 l 692 124 q 685 76 689 100 q 675 29 681 53 l 675 29 q 563 31 618 31 q 451 32 507 32 l 451 32 l 476 125 q 488 170 483 147 q 499 217 493 193 l 499 217 q 469 215 490 217 q 421 212 447 214 q 374 208 394 210 q 347 207 354 207 l 347 207 q 329 110 339 158 q 308 15 319 63 l 308 15 q 195 8 251 13 q 82 -7 139 3 z m 424 553 l 394 426 q 487 431 451 426 q 536 435 522 435 l 536 435 q 547 457 543 435 q 557 509 551 479 q 569 561 563 539 l 569 561 q 467 557 504 561 q 424 553 431 553 l 424 553 z "},"%":{"ha":1110,"x_min":114,"x_max":1139,"o":"m 293 422 l 293 422 q 156 479 199 422 q 114 618 114 536 l 114 618 q 140 766 114 689 q 213 911 167 843 q 321 1022 260 979 q 450 1064 382 1064 l 450 1064 q 538 1033 504 1064 q 588 951 572 1001 q 603 844 603 901 l 603 844 q 582 700 603 774 q 522 563 561 626 q 424 461 482 500 q 293 422 367 422 z m 479 103 l 382 -40 l 151 14 q 200 76 167 29 q 289 201 233 124 l 289 201 q 392 353 336 271 q 515 533 449 436 l 515 533 q 692 797 622 692 q 801 963 761 901 q 856 1050 840 1025 l 856 1050 q 902 1040 879 1044 q 947 1031 925 1035 l 947 1031 q 1022 1015 983 1022 q 1083 1006 1061 1008 l 1083 1006 q 947 804 1024 918 q 789 568 871 690 l 789 568 q 881 640 832 613 q 986 668 931 668 l 986 668 q 1074 638 1040 668 q 1123 559 1107 608 q 1139 450 1139 510 l 1139 450 q 1117 305 1139 379 q 1056 167 1096 231 q 958 66 1015 104 q 829 28 901 28 l 829 28 q 692 85 733 28 q 650 224 650 143 l 650 224 q 703 438 650 329 l 703 438 q 580 256 638 342 q 479 103 522 169 l 479 103 z m 331 592 l 331 592 q 403 618 372 592 q 451 683 435 644 q 468 758 468 722 l 468 758 q 452 815 468 792 q 403 839 436 839 l 403 839 q 342 808 369 839 q 297 734 314 776 q 281 657 281 692 l 281 657 q 292 610 281 629 q 331 592 304 592 z m 867 197 l 867 197 q 939 224 908 197 q 987 289 969 250 q 1004 364 1004 328 l 1004 364 q 988 420 1004 397 q 939 443 972 443 l 939 443 q 878 413 906 443 q 833 340 850 382 q 817 261 817 297 l 817 261 q 828 216 817 235 q 867 197 839 197 z "},"&":{"ha":743,"x_min":28,"x_max":839,"o":"m 304 -18 l 304 -18 q 149 14 210 -18 q 58 101 88 46 q 28 224 28 156 l 28 224 q 58 363 28 293 q 142 486 88 432 q 269 560 196 540 l 269 560 q 190 623 224 583 q 157 714 157 663 l 157 714 q 209 879 157 808 q 346 990 261 950 q 529 1031 431 1031 l 529 1031 q 649 1001 594 1031 q 735 918 704 971 l 735 918 l 621 790 q 588 819 603 807 q 550 838 574 831 q 481 844 526 844 l 481 844 q 398 808 425 844 q 371 724 371 772 l 371 724 q 401 633 371 669 q 488 596 432 596 l 488 596 l 501 596 q 510 597 506 596 q 518 599 514 597 l 518 599 q 519 617 518 611 l 519 617 q 521 625 521 621 q 522 635 521 629 l 522 635 q 524 653 522 647 l 524 653 q 577 653 551 653 q 626 656 603 654 l 626 656 q 675 658 650 657 q 726 661 700 660 l 726 661 q 724 640 724 653 l 724 640 l 724 606 q 765 611 739 606 q 824 624 792 617 l 824 624 l 839 482 q 771 472 801 476 q 729 467 740 467 l 729 467 q 688 219 729 329 q 553 46 646 110 q 304 -18 460 -18 z m 350 157 l 350 157 q 430 190 400 157 q 476 274 460 224 q 499 375 492 324 q 508 461 506 426 l 508 461 q 310 392 372 451 q 249 257 249 333 l 249 257 q 276 185 249 213 q 350 157 303 157 z "},"'":{"ha":281,"x_min":108,"x_max":472,"o":"m 336 664 l 108 640 l 146 790 q 181 933 163 856 q 215 1081 200 1011 l 215 1081 q 253 1078 228 1079 q 299 1076 278 1076 q 324 1076 319 1076 l 324 1076 q 395 1083 357 1076 q 472 1096 433 1089 l 472 1096 l 336 664 z "},"(":{"ha":464,"x_min":60,"x_max":665,"o":"m 494 -25 l 314 -190 q 135 1 204 -136 l 135 1 q 80 158 100 71 q 60 349 60 244 l 60 349 q 169 818 60 592 q 490 1218 278 1044 l 490 1218 l 665 1053 q 540 933 607 1003 q 417 778 472 864 l 417 778 q 324 585 361 690 q 288 360 288 481 l 288 360 q 307 235 288 296 q 358 122 326 174 q 425 31 389 69 q 494 -25 461 -7 l 494 -25 z "},")":{"ha":460,"x_min":-79,"x_max":544,"o":"m 47 -190 l 47 -190 l -79 3 q 81 116 13 43 q 195 282 150 189 q 263 474 240 375 q 286 667 286 574 l 286 667 q 247 897 286 794 q 133 1056 208 1000 l 133 1056 l 351 1218 q 497 974 449 1108 q 544 692 544 839 l 544 692 q 514 442 544 561 q 431 219 483 322 q 315 34 379 117 q 181 -106 250 -49 q 47 -190 111 -162 z "},"*":{"ha":588,"x_min":106,"x_max":651,"o":"m 576 375 l 401 307 l 360 485 l 261 311 l 106 379 l 238 532 l 106 524 l 125 689 l 274 674 l 183 839 l 332 929 l 406 726 l 518 928 l 647 829 l 513 679 l 651 696 l 640 514 l 475 538 l 576 375 z "},"+":{"ha":458,"x_min":82,"x_max":499,"o":"m 322 165 l 157 156 q 171 222 167 200 q 180 264 175 243 q 193 325 185 285 l 193 325 l 82 325 q 92 433 86 379 q 104 532 99 488 l 104 532 l 119 532 q 176 533 147 532 q 232 539 204 535 l 232 539 q 237 567 235 553 q 242 594 239 581 l 242 594 q 247 618 244 606 q 251 644 249 631 l 251 644 q 256 672 254 658 q 261 699 258 685 l 261 699 q 346 704 304 701 q 429 714 388 707 l 429 714 q 422 685 426 700 q 415 656 418 671 l 415 656 q 408 626 413 640 q 401 600 404 613 l 401 600 l 389 540 q 409 542 399 542 q 429 544 419 543 l 429 544 l 465 549 q 483 550 475 550 q 499 551 492 550 l 499 551 q 481 469 488 500 q 468 406 474 438 q 453 324 463 375 l 453 324 q 438 324 446 324 q 421 325 431 324 l 421 325 l 385 325 q 365 325 375 325 q 343 326 354 325 l 343 326 q 341 299 342 313 q 338 271 340 285 l 338 271 q 331 219 335 247 q 322 165 328 192 l 322 165 z "},",":{"ha":274,"x_min":-47,"x_max":285,"o":"m 171 -154 l -47 -154 q -17 -7 -33 -83 q 14 138 0 69 q 33 250 28 206 l 33 250 l 69 250 q 90 249 81 249 q 106 249 100 249 l 106 249 q 172 249 147 249 q 220 251 196 250 q 285 253 244 251 l 285 253 q 234 54 265 160 q 171 -154 203 -51 l 171 -154 z "},"-":{"ha":500,"x_min":57,"x_max":554,"o":"m 554 579 l 507 331 q 363 335 431 333 q 250 336 296 336 l 250 336 q 154 334 206 336 q 57 332 103 332 l 57 332 l 124 578 q 235 574 182 576 q 322 572 288 572 l 322 572 q 435 574 375 572 q 554 579 496 575 l 554 579 z "},".":{"ha":290,"x_min":-11,"x_max":289,"o":"m 111 -32 l 111 -32 q 42 -12 69 -32 q 2 38 15 8 q -11 99 -11 68 l -11 99 q 26 195 -11 154 q 128 236 63 236 l 128 236 q 249 198 208 236 q 289 111 289 160 l 289 111 q 243 12 289 56 q 111 -32 197 -32 z "},"/":{"ha":765,"x_min":-15,"x_max":917,"o":"m 215 -40 l 215 -40 l -15 14 q 112 190 29 72 q 303 463 194 307 l 303 463 q 403 609 350 531 q 509 767 457 688 q 608 920 561 847 q 689 1050 654 993 l 689 1050 q 736 1032 704 1040 q 805 1019 768 1024 q 873 1010 842 1014 q 917 1006 904 1007 l 917 1006 q 711 698 824 867 q 483 358 599 529 l 483 358 q 351 162 418 261 q 215 -40 285 63 z "},":":{"ha":271,"x_min":28,"x_max":354,"o":"m 117 467 l 100 467 q 112 544 106 506 q 124 619 118 582 l 124 619 q 136 693 131 656 q 147 768 142 731 l 147 768 q 251 776 200 768 q 354 800 303 785 l 354 800 q 321 637 335 719 q 294 472 307 554 l 294 472 q 205 468 250 469 q 117 467 160 467 l 117 467 z m 28 58 l 28 58 q 56 213 43 136 q 79 367 68 289 l 79 367 q 141 369 110 368 q 203 369 172 369 l 203 369 l 240 369 q 258 369 250 369 q 276 368 267 369 l 276 368 q 265 299 271 333 q 253 229 258 264 l 253 229 q 242 159 247 194 q 231 89 236 124 l 231 89 q 128 81 179 88 q 28 58 78 74 z "},";":{"ha":364,"x_min":26,"x_max":403,"o":"m 151 467 l 136 467 q 147 544 142 506 q 158 619 153 582 l 158 619 l 183 768 q 288 769 228 768 q 403 774 349 769 l 403 774 q 390 663 397 708 q 374 574 382 617 q 357 472 365 531 l 357 472 q 242 468 300 469 q 151 467 183 467 l 151 467 z m 244 -36 l 26 -36 q 72 178 46 69 q 107 368 97 286 l 107 368 l 143 368 q 164 367 154 367 q 179 367 174 367 l 179 367 q 244 367 221 367 q 291 369 267 368 q 358 371 315 369 l 358 371 q 329 249 346 308 q 292 122 313 189 q 244 -36 271 54 l 244 -36 z "},"?":{"ha":608,"x_min":133,"x_max":711,"o":"m 371 344 l 207 328 q 228 462 207 403 q 283 567 250 521 q 351 646 317 613 l 351 646 q 449 736 404 697 q 493 806 493 775 l 493 806 q 482 828 493 814 q 447 843 471 843 l 447 843 q 383 822 422 843 q 303 770 344 801 q 225 706 261 739 l 225 706 l 151 876 q 311 977 222 940 q 492 1014 400 1014 l 492 1014 q 599 997 549 1014 q 680 942 649 981 q 711 836 711 903 l 711 836 q 666 677 711 740 q 561 569 621 614 l 561 569 q 444 471 499 524 q 371 344 389 418 l 371 344 z m 242 -32 l 242 -32 q 160 2 186 -32 q 133 83 133 36 l 133 83 q 151 154 133 119 q 204 213 169 189 q 289 236 239 236 l 289 236 q 401 203 365 236 q 436 126 436 169 l 436 126 q 413 51 436 88 q 347 -9 390 14 q 242 -32 303 -32 z "},"@":{"ha":1371,"x_min":63,"x_max":1421,"o":"m 318 143 l 142 -32 q 81 142 100 57 q 63 310 63 228 l 63 310 q 140 602 63 471 q 342 821 217 733 l 342 821 q 619 953 467 908 q 914 999 771 999 l 914 999 q 1137 960 1042 999 q 1296 858 1232 921 l 1296 858 q 1390 713 1358 794 q 1421 549 1421 632 l 1421 549 q 1389 381 1421 463 q 1293 235 1357 300 l 1293 235 q 1133 131 1229 171 q 908 90 1036 90 l 908 90 q 812 107 849 90 q 775 151 775 124 l 775 151 q 781 189 775 172 l 781 189 q 678 136 728 156 q 576 117 628 117 l 576 117 q 421 169 469 117 q 372 292 372 221 l 372 292 q 404 408 372 349 q 494 520 436 467 q 631 613 551 574 l 631 613 q 761 658 707 650 l 761 658 q 824 666 801 664 q 872 668 847 668 l 872 668 q 976 656 918 668 q 1094 608 1033 643 l 1094 608 l 1078 550 q 1063 494 1071 525 q 1049 436 1056 464 l 1049 436 l 1006 261 q 1167 399 1122 325 q 1211 544 1211 472 l 1211 544 q 1163 684 1211 629 q 1037 765 1115 739 q 864 792 958 792 l 864 792 q 653 761 757 792 q 467 672 550 731 q 333 528 383 613 q 283 335 283 443 l 283 335 q 318 143 283 238 l 318 143 z m 681 261 l 681 261 q 808 294 744 261 l 808 294 l 885 542 q 843 547 864 547 l 843 547 q 724 519 783 547 q 624 442 664 490 q 585 335 585 394 l 585 335 q 604 282 585 303 q 681 261 624 261 z "}}}
